<svg width="208" height="176" viewBox="0 0 208 176" fill="none" xmlns="http://www.w3.org/2000/svg">
<path d="M192 0H16C11.7565 0 7.68687 1.68571 4.68629 4.68629C1.68571 7.68687 0 11.7565 0 16V160C0 164.243 1.68571 168.313 4.68629 171.314C7.68687 174.314 11.7565 176 16 176H192C196.243 176 200.313 174.314 203.314 171.314C206.314 168.313 208 164.243 208 160V16C208 11.7565 206.314 7.68687 203.314 4.68629C200.313 1.68571 196.243 0 192 0ZM68.8 105.6C70.4974 106.873 71.6195 108.768 71.9196 110.869C72.2197 112.969 71.673 115.103 70.4 116.8C69.127 118.497 67.2318 119.62 65.1314 119.92C63.031 120.22 60.8974 119.673 59.2 118.4L27.2 94.4C26.2064 93.6548 25.4 92.6886 24.8446 91.5777C24.2892 90.4669 24 89.242 24 88C24 86.758 24.2892 85.5331 24.8446 84.4223C25.4 83.3115 26.2064 82.3452 27.2 81.6L59.2 57.6C60.8974 56.327 63.031 55.7803 65.1314 56.0804C67.2318 56.3805 69.127 57.5026 70.4 59.2C71.673 60.8974 72.2197 63.031 71.9196 65.1314C71.6195 67.2318 70.4974 69.127 68.8 70.4L45.33 88L68.8 105.6ZM127.69 34.2L95.69 146.2C95.4173 147.228 94.9423 148.191 94.2928 149.034C93.6434 149.876 92.8325 150.58 91.9076 151.105C90.9827 151.631 89.9624 151.966 88.9063 152.092C87.8503 152.218 86.7796 152.133 85.7571 151.84C84.7345 151.548 83.7805 151.054 82.951 150.388C82.1214 149.723 81.4329 148.898 80.9257 147.964C80.4185 147.029 80.1028 146.002 79.9971 144.944C79.8914 143.885 79.9978 142.817 80.31 141.8L112.31 29.8C112.925 27.7974 114.301 26.1159 116.143 25.1169C117.984 24.1178 120.144 23.881 122.158 24.4572C124.172 25.0334 125.88 26.3767 126.914 28.1985C127.949 30.0202 128.227 32.1751 127.69 34.2ZM180.8 94.4L148.8 118.4C147.103 119.673 144.969 120.22 142.869 119.92C140.768 119.62 138.873 118.497 137.6 116.8C136.327 115.103 135.78 112.969 136.08 110.869C136.38 108.768 137.503 106.873 139.2 105.6L162.67 88L139.2 70.4C138.36 69.7697 137.651 68.9799 137.116 68.076C136.581 67.172 136.229 66.1714 136.08 65.1314C135.932 64.0914 135.99 63.0323 136.25 62.0145C136.511 60.9968 136.97 60.0405 137.6 59.2C138.23 58.3595 139.02 57.6515 139.924 57.1162C140.828 56.5809 141.829 56.229 142.869 56.0804C143.909 55.9318 144.968 55.9896 145.985 56.2503C147.003 56.511 147.96 56.9697 148.8 57.6L180.8 81.6C181.794 82.3452 182.6 83.3115 183.155 84.4223C183.711 85.5331 184 86.758 184 88C184 89.242 183.711 90.4669 183.155 91.5777C182.6 92.6886 181.794 93.6548 180.8 94.4Z" fill="#61FF47"/>
</svg>
