<svg width="77" height="79" viewBox="0 0 77 79" fill="none" xmlns="http://www.w3.org/2000/svg">
<g filter="url(#filter0_d_5040_4683)">
<path d="M7.37911 65.065L38.1791 34.265L33.6874 29.7092L31.3774 31.9871C31.0806 32.2845 30.7281 32.5205 30.3399 32.6815C29.9518 32.8425 29.5358 32.9253 29.1156 32.9253C28.6954 32.9253 28.2793 32.8425 27.8912 32.6815C27.5031 32.5205 27.1505 32.2845 26.8537 31.9871L24.5758 29.7092C24.2784 29.4123 24.0424 29.0598 23.8814 28.6717C23.7204 28.2835 23.6375 27.8675 23.6375 27.4473C23.6375 27.0271 23.7204 26.611 23.8814 26.2229C24.0424 25.8348 24.2784 25.4822 24.5758 25.1854L42.7349 7.02624C43.0318 6.72882 43.3843 6.49285 43.7724 6.33185C44.1606 6.17085 44.5766 6.08798 44.9968 6.08798C45.417 6.08798 45.8331 6.17085 46.2212 6.33185C46.6093 6.49285 46.9619 6.72882 47.2587 7.02624L49.5366 9.30416C50.7879 10.5554 50.7879 12.5767 49.5366 13.8279L47.2587 16.0417L51.8145 20.6296C52.1113 20.3321 52.4639 20.0962 52.852 19.9352C53.2401 19.7742 53.6562 19.6913 54.0764 19.6913C54.4966 19.6913 54.9127 19.7742 55.3008 19.9352C55.6889 20.0962 56.0415 20.3321 56.3383 20.6296C57.5895 21.8808 57.5895 23.9342 56.3383 25.1854L60.862 29.7092L63.1399 27.4312C64.3912 26.18 66.4445 26.18 67.6958 27.4312L69.9416 29.7092C71.1929 30.9604 71.1929 33.0137 69.9416 34.265L51.8145 52.3921C50.5633 53.6433 48.5099 53.6433 47.2587 52.3921L45.0129 50.1462C44.7082 49.8502 44.4661 49.4961 44.3007 49.1048C44.1353 48.7136 44.0501 48.2931 44.0501 47.8683C44.0501 47.4435 44.1353 47.0231 44.3007 46.6318C44.4661 46.2406 44.7082 45.8864 45.0129 45.5904L47.2587 43.3125L42.7349 38.7887L11.9029 69.6208C11.606 69.9182 11.2535 70.1542 10.8654 70.3152C10.4772 70.4762 10.0612 70.5591 9.64099 70.5591C9.2208 70.5591 8.80473 70.4762 8.41661 70.3152C8.02849 70.1542 7.67593 69.9182 7.37911 69.6208C6.12786 68.3696 6.12786 66.3162 7.37911 65.065ZM64.1666 60.9583C65.8684 60.9583 67.5005 61.6344 68.7039 62.8377C69.9072 64.0411 70.5833 65.6732 70.5833 67.375V70.5833H38.4999V67.375C38.4999 65.6732 39.176 64.0411 40.3793 62.8377C41.5827 61.6344 43.2148 60.9583 44.9166 60.9583H64.1666Z" fill="#FACFCF"/>
</g>
<defs>
<filter id="filter0_d_5040_4683" x="-4" y="0" width="85" height="85" filterUnits="userSpaceOnUse" color-interpolation-filters="sRGB">
<feFlood flood-opacity="0" result="BackgroundImageFix"/>
<feColorMatrix in="SourceAlpha" type="matrix" values="0 0 0 0 0 0 0 0 0 0 0 0 0 0 0 0 0 0 127 0" result="hardAlpha"/>
<feOffset dy="4"/>
<feGaussianBlur stdDeviation="2"/>
<feComposite in2="hardAlpha" operator="out"/>
<feColorMatrix type="matrix" values="0 0 0 0 0 0 0 0 0 0 0 0 0 0 0 0 0 0 0.25 0"/>
<feBlend mode="normal" in2="BackgroundImageFix" result="effect1_dropShadow_5040_4683"/>
<feBlend mode="normal" in="SourceGraphic" in2="effect1_dropShadow_5040_4683" result="shape"/>
</filter>
</defs>
</svg>
