<svg width="19" height="20" viewBox="0 0 19 20" fill="none" xmlns="http://www.w3.org/2000/svg">
<path d="M0.249937 7.6499C0.13327 7.56657 0.0622704 7.46224 0.0369371 7.3369C0.0116037 7.21157 0.0492706 7.08257 0.149937 6.9499C1.18327 5.53324 2.47927 4.43324 4.03794 3.6499C5.5966 2.86657 7.25894 2.4749 9.02494 2.4749C10.7916 2.4749 12.4583 2.85424 14.0249 3.6129C15.5916 4.37157 16.8999 5.46724 17.9499 6.8999C18.0666 7.0499 18.1043 7.18324 18.0629 7.2999C18.0216 7.41657 17.9506 7.51657 17.8499 7.5999C17.7499 7.68324 17.6333 7.7209 17.4999 7.7129C17.3666 7.7049 17.2499 7.6339 17.1499 7.4999C16.2333 6.1999 15.0543 5.20424 13.6129 4.5129C12.1716 3.82157 10.6423 3.47557 9.02494 3.4749C7.40827 3.4749 5.8916 3.8209 4.47494 4.5129C3.05827 5.2049 1.88327 6.20057 0.949937 7.4999C0.849937 7.6499 0.73327 7.73324 0.599937 7.7499C0.466604 7.76657 0.349937 7.73324 0.249937 7.6499ZM11.8499 19.9749C10.1166 19.5416 8.69994 18.6789 7.59994 17.3869C6.49994 16.0949 5.94994 14.5159 5.94994 12.6499C5.94994 11.8166 6.24994 11.1166 6.84994 10.5499C7.44994 9.98324 8.17494 9.6999 9.02494 9.6999C9.87494 9.6999 10.5999 9.98324 11.1999 10.5499C11.7999 11.1166 12.0999 11.8166 12.0999 12.6499C12.0999 13.1999 12.3083 13.6626 12.7249 14.0379C13.1416 14.4132 13.6333 14.6006 14.1999 14.5999C14.7666 14.5999 15.2499 14.4122 15.6499 14.0369C16.0499 13.6616 16.2499 13.1992 16.2499 12.6499C16.2499 10.7166 15.5416 9.09157 14.1249 7.7749C12.7083 6.45824 11.0166 5.7999 9.04994 5.7999C7.08327 5.7999 5.3916 6.45824 3.97494 7.7749C2.55827 9.09157 1.84994 10.7082 1.84994 12.6249C1.84994 13.0249 1.8876 13.5249 1.96294 14.1249C2.03827 14.7249 2.21727 15.4249 2.49994 16.2249C2.54994 16.3749 2.54594 16.5082 2.48794 16.6249C2.42994 16.7416 2.33394 16.8249 2.19994 16.8749C2.0666 16.9249 1.93727 16.9206 1.81194 16.8619C1.6866 16.8032 1.59927 16.7076 1.54994 16.5749C1.29994 15.9249 1.12094 15.2789 1.01294 14.6369C0.904937 13.9949 0.850604 13.3326 0.849937 12.6499C0.849937 10.4332 1.65427 8.5749 3.26294 7.0749C4.8716 5.5749 6.79227 4.8249 9.02494 4.8249C11.2749 4.8249 13.2083 5.5749 14.8249 7.0749C16.4416 8.5749 17.2499 10.4332 17.2499 12.6499C17.2499 13.4832 16.9543 14.1789 16.3629 14.7369C15.7716 15.2949 15.0506 15.5742 14.1999 15.5749C13.3499 15.5749 12.6206 15.2956 12.0119 14.7369C11.4033 14.1782 11.0993 13.4826 11.0999 12.6499C11.0999 12.0999 10.8959 11.6372 10.4879 11.2619C10.0799 10.8866 9.59227 10.6992 9.02494 10.6999C8.45827 10.6999 7.9706 10.8876 7.56194 11.2629C7.15327 11.6382 6.94927 12.1006 6.94994 12.6499C6.94994 14.2666 7.42927 15.6166 8.38794 16.6999C9.3466 17.7832 10.5839 18.5416 12.0999 18.9749C12.2499 19.0249 12.3499 19.1082 12.3999 19.2249C12.4499 19.3416 12.4583 19.4666 12.4249 19.5999C12.3916 19.7166 12.3249 19.8166 12.2249 19.8999C12.1249 19.9832 11.9999 20.0082 11.8499 19.9749ZM3.49994 2.4249C3.3666 2.50824 3.23327 2.52924 3.09994 2.4879C2.9666 2.44657 2.8666 2.3589 2.79994 2.2249C2.73327 2.09157 2.7166 1.9709 2.74994 1.8629C2.78327 1.7549 2.8666 1.6589 2.99994 1.5749C3.93327 1.0749 4.90827 0.691569 5.92494 0.424902C6.9416 0.158236 7.97494 0.0249023 9.02494 0.0249023C10.0916 0.0249023 11.1333 0.154236 12.1499 0.412902C13.1666 0.671569 14.1499 1.04224 15.0999 1.5249C15.2499 1.60824 15.3376 1.70824 15.3629 1.8249C15.3883 1.94157 15.3756 2.05824 15.3249 2.1749C15.2749 2.29157 15.1916 2.38324 15.0749 2.4499C14.9583 2.51657 14.8166 2.50824 14.6499 2.4249C13.7666 1.9749 12.8539 1.6289 11.9119 1.3869C10.9699 1.1449 10.0076 1.02424 9.02494 1.0249C8.05827 1.0249 7.10827 1.13757 6.17494 1.3629C5.2416 1.58824 4.34994 1.94224 3.49994 2.4249ZM6.44994 19.6249C5.4666 18.5916 4.71227 17.5372 4.18694 16.4619C3.6616 15.3866 3.39927 14.1159 3.39994 12.6499C3.39994 11.1332 3.94994 9.8539 5.04994 8.8119C6.14994 7.7699 7.47494 7.24924 9.02494 7.2499C10.5749 7.2499 11.9083 7.7709 13.0249 8.8129C14.1416 9.8549 14.6999 11.1339 14.6999 12.6499C14.6999 12.7999 14.6539 12.9209 14.5619 13.0129C14.4699 13.1049 14.3493 13.1506 14.1999 13.1499C14.0666 13.1499 13.9499 13.1039 13.8499 13.0119C13.7499 12.9199 13.6999 12.7992 13.6999 12.6499C13.6999 11.3999 13.2373 10.3539 12.3119 9.5119C11.3866 8.6699 10.2909 8.24924 9.02494 8.2499C7.75827 8.2499 6.6706 8.6709 5.76194 9.5129C4.85327 10.3549 4.39927 11.4006 4.39994 12.6499C4.39994 13.9999 4.63327 15.1459 5.09994 16.0879C5.5666 17.0299 6.24994 17.9756 7.14994 18.9249C7.24994 19.0249 7.29994 19.1416 7.29994 19.2749C7.29994 19.4082 7.24994 19.5249 7.14994 19.6249C7.04994 19.7249 6.93327 19.7749 6.79994 19.7749C6.6666 19.7749 6.54994 19.7249 6.44994 19.6249ZM13.9999 17.9249C12.5166 17.9249 11.2289 17.4249 10.1369 16.4249C9.04494 15.4249 8.49927 14.1666 8.49994 12.6499C8.49994 12.5166 8.54594 12.3999 8.63794 12.2999C8.72994 12.1999 8.8506 12.1499 8.99994 12.1499C9.14994 12.1499 9.27094 12.1999 9.36294 12.2999C9.45494 12.3999 9.5006 12.5166 9.49994 12.6499C9.49994 13.8999 9.94994 14.9249 10.8499 15.7249C11.7499 16.5249 12.7999 16.9249 13.9999 16.9249C14.0999 16.9249 14.2416 16.9166 14.4249 16.8999C14.6083 16.8832 14.7999 16.8582 14.9999 16.8249C15.1499 16.7916 15.2793 16.8126 15.3879 16.8879C15.4966 16.9632 15.5673 17.0756 15.5999 17.2249C15.6333 17.3582 15.6083 17.4749 15.5249 17.5749C15.4416 17.6749 15.3333 17.7416 15.1999 17.7749C14.8999 17.8582 14.6376 17.9042 14.4129 17.9129C14.1883 17.9216 14.0506 17.9256 13.9999 17.9249Z" fill="#7FC474"/>
</svg>
