<svg width="184" height="228" viewBox="0 0 184 228" fill="none" xmlns="http://www.w3.org/2000/svg">
<path d="M175.344 103.403L159.716 87.8057C158.503 86.5939 156.858 85.9131 155.143 85.9131C153.427 85.9131 151.782 86.5939 150.569 87.8057C149.356 89.0176 148.675 90.6612 148.675 92.375C148.675 94.0888 149.356 95.7324 150.569 96.9443L166.181 112.557C167.387 113.764 168.066 115.397 168.071 117.102V182.792C168.071 184.505 167.39 186.147 166.178 187.358C164.966 188.57 163.321 189.25 161.607 189.25C159.893 189.25 158.248 188.57 157.036 187.358C155.824 186.147 155.143 184.505 155.143 182.792V150.5C155.143 145.361 153.1 140.433 149.463 136.8C145.826 133.166 140.893 131.125 135.75 131.125H122.821V92.375C122.821 87.2364 120.778 82.3083 117.141 78.6748C113.504 75.0413 108.572 73 103.428 73H38.7857C33.6424 73 28.7097 75.0413 25.0729 78.6748C21.436 82.3083 19.3928 87.2364 19.3928 92.375V215.083H6.46428C4.74985 215.083 3.10563 215.764 1.89334 216.975C0.681056 218.186 0 219.829 0 221.542C0 223.255 0.681056 224.897 1.89334 226.108C3.10563 227.32 4.74985 228 6.46428 228H135.75C137.464 228 139.109 227.32 140.321 226.108C141.533 224.897 142.214 223.255 142.214 221.542C142.214 219.829 141.533 218.186 140.321 216.975C139.109 215.764 137.464 215.083 135.75 215.083H122.821V144.042H135.75C137.464 144.042 139.109 144.722 140.321 145.933C141.533 147.144 142.214 148.787 142.214 150.5V182.792C142.214 187.93 144.257 192.858 147.894 196.492C151.531 200.125 156.464 202.167 161.607 202.167C166.75 202.167 171.683 200.125 175.32 196.492C178.957 192.858 181 187.93 181 182.792V117.102C181.01 114.559 180.515 112.038 179.544 109.687C178.573 107.336 177.145 105.2 175.344 103.403ZM96.9642 144.042H45.25C43.5355 144.042 41.8913 143.361 40.679 142.15C39.4667 140.939 38.7857 139.296 38.7857 137.583C38.7857 135.87 39.4667 134.228 40.679 133.017C41.8913 131.805 43.5355 131.125 45.25 131.125H96.9642C98.6787 131.125 100.323 131.805 101.535 133.017C102.747 134.228 103.428 135.87 103.428 137.583C103.428 139.296 102.747 140.939 101.535 142.15C100.323 143.361 98.6787 144.042 96.9642 144.042Z" fill="#7FC474"/>
<path d="M172.355 11.9626C156.56 -3.98753 130.641 -3.98753 114.846 11.9626C99.0513 27.9127 99.0513 54.0873 114.846 70.0374C130.641 85.9875 156.155 85.9875 171.95 70.0374C187.744 54.0873 188.149 27.9127 172.355 11.9626ZM154.94 58.1771L143.6 46.7257L132.261 58.1771L126.591 52.4514L137.93 41L126.591 29.5486L132.261 23.8229L143.6 35.2743L154.94 23.8229L160.61 29.5486L149.27 41L160.61 52.4514L154.94 58.1771Z" fill="#D16D64"/>
</svg>
