<svg width="224" height="192" viewBox="0 0 224 192" fill="none" xmlns="http://www.w3.org/2000/svg">
<path d="M224 62C224 132 120.21 188.66 115.79 191C114.625 191.627 113.323 191.955 112 191.955C110.677 191.955 109.375 191.627 108.21 191C104.86 189.2 44.66 156.31 15.53 110.11C15.1542 109.505 14.9469 108.81 14.9294 108.098C14.9119 107.386 15.0849 106.682 15.4305 106.059C15.7761 105.436 16.2817 104.917 16.8952 104.555C17.5087 104.193 18.2077 104.001 18.92 104H56C57.3174 104.001 58.6147 103.676 59.7765 103.055C60.9383 102.434 61.9288 101.536 62.66 100.44L72 86.44L97.34 124.44C98.3109 125.896 99.7326 126.994 101.387 127.565C103.042 128.135 104.838 128.148 106.5 127.6C108.263 127.003 109.772 125.825 110.78 124.26L124.28 104H144C145.097 104.002 146.182 103.779 147.189 103.345C148.196 102.91 149.103 102.273 149.853 101.473C150.603 100.673 151.181 99.7271 151.55 98.6945C151.92 97.6618 152.073 96.5643 152 95.47C151.821 93.4137 150.871 91.5011 149.341 90.1157C147.811 88.7303 145.814 87.9746 143.75 88H120C118.683 87.9991 117.385 88.3236 116.223 88.9447C115.062 89.5657 114.071 90.4641 113.34 91.56L104 105.56L78.66 67.56C77.6885 66.1017 76.2651 65.0027 74.6085 64.4318C72.9519 63.861 71.1536 63.8498 69.49 64.4C67.7311 65.0006 66.2265 66.1775 65.22 67.74L51.72 88H7.53C6.67512 88.0024 5.84197 87.7308 5.15271 87.2251C4.46344 86.7194 3.95432 86.0062 3.7 85.19C1.28717 77.6949 0.0393005 69.8738 0 62C0.0185274 45.5623 6.5566 29.8031 18.1798 18.1798C29.8031 6.5566 45.5623 0.0185274 62 0C82.65 0 100.73 8.88 112 23.89C123.27 8.88 141.35 0 162 0C178.438 0.0185274 194.197 6.5566 205.82 18.1798C217.443 29.8031 223.981 45.5623 224 62Z" fill="#FD537C"/>
</svg>
