<svg width="24" height="24" viewBox="0 0 24 24" fill="none" xmlns="http://www.w3.org/2000/svg">
<path d="M3.43284 17.3248L3.07884 19.7998C3.05696 19.9534 3.07113 20.11 3.12023 20.2572C3.16934 20.4044 3.25202 20.5381 3.36174 20.6479C3.47146 20.7576 3.60521 20.8403 3.75241 20.8894C3.89961 20.9385 4.05622 20.9526 4.20984 20.9308L6.68484 20.5768C7.05984 20.5238 7.99984 17.9998 7.99984 17.9998C7.99984 17.9998 8.47184 18.4048 8.66484 18.4658C9.07684 18.5958 9.47784 18.1918 9.61284 17.7818L9.99984 16.0098C9.99984 16.0098 10.5768 16.3018 10.7858 16.3448C11.0518 16.3998 11.3098 16.2358 11.4928 16.0518C11.6028 15.9422 11.6853 15.8082 11.7338 15.6608L11.9998 14.0098C11.9998 14.0098 12.6748 14.1968 12.9058 14.2238C13.1688 14.2538 13.4248 14.1198 13.6128 13.9308L14.7508 12.7938C15.7141 13.1059 16.7449 13.1462 17.7296 12.9101C18.7143 12.674 19.6148 12.1708 20.3318 11.4558C21.3615 10.4234 21.9398 9.02484 21.9398 7.56676C21.9398 6.10868 21.3615 4.71011 20.3318 3.67776C19.2995 2.64807 17.9009 2.06982 16.4428 2.06982C14.9848 2.06982 13.5862 2.64807 12.5538 3.67776C11.8386 4.39468 11.3353 5.29514 11.0992 6.2799C10.8631 7.26466 10.9035 8.29548 11.2158 9.25876L3.71484 16.7588C3.56173 16.9117 3.46272 17.1104 3.43284 17.3248ZM18.5038 5.50576C19.0494 6.05293 19.3558 6.79408 19.3558 7.56676C19.3558 8.33943 19.0494 9.08059 18.5038 9.62776L14.3818 5.50576C14.929 4.9602 15.6702 4.65384 16.4428 4.65384C17.2155 4.65384 17.9567 4.9602 18.5038 5.50576Z" fill="#7FC474"/>
</svg>
