<svg width="677" height="585" viewBox="0 0 677 585" fill="none" xmlns="http://www.w3.org/2000/svg">
<path d="M95.5 177H415.5C419.238 176.998 422.972 177.235 426.68 177.71C425.423 168.888 422.393 160.411 417.772 152.792C413.15 145.172 407.034 138.568 399.791 133.376C392.548 128.184 384.329 124.513 375.629 122.584C366.929 120.654 357.929 120.507 349.17 122.15L86 167.08H85.7C69.1807 170.239 54.4906 179.585 44.63 193.21C59.486 182.643 77.2694 176.976 95.5 177ZM415.5 201H95.5C78.5318 201.019 62.2639 207.767 50.2656 219.766C38.2673 231.764 31.5185 248.032 31.5 265V457C31.5185 473.968 38.2673 490.236 50.2656 502.234C62.2639 514.233 78.5318 520.981 95.5 521H415.5C432.468 520.981 448.736 514.233 460.734 502.234C472.733 490.236 479.481 473.968 479.5 457V265C479.481 248.032 472.733 231.764 460.734 219.766C448.736 207.767 432.468 201.019 415.5 201ZM368 393C361.671 393 355.484 391.123 350.222 387.607C344.959 384.091 340.858 379.093 338.436 373.246C336.014 367.399 335.38 360.965 336.615 354.757C337.85 348.55 340.897 342.848 345.373 338.373C349.848 333.897 355.55 330.85 361.757 329.615C367.965 328.38 374.399 329.014 380.246 331.436C386.093 333.858 391.091 337.959 394.607 343.222C398.123 348.484 400 354.671 400 361C400 369.487 396.629 377.626 390.627 383.627C384.626 389.629 376.487 393 368 393Z" fill="#61FF47"/>
<path d="M32 332.5V233C32 211.33 44 175 85.65 167.13C121 160.5 156 160.5 156 160.5C156 160.5 179 176.5 160 176.5C141 176.5 141.5 201 160 201C178.5 201 160 224.5 160 224.5L85.5 309L32 332.5Z" fill="#61FF47"/>
<path d="M520.343 245L515.448 205.8C512.796 204.779 510.295 203.554 507.945 202.125C505.596 200.696 503.303 199.165 501.067 197.531L464.657 212.844L431 154.656L462.515 130.769C462.311 129.34 462.209 127.959 462.209 126.628V118.372C462.209 117.041 462.311 115.66 462.515 114.231L431 90.3438L464.657 32.1562L501.067 47.4688C503.311 45.8354 505.657 44.3042 508.104 42.875C510.552 41.4458 513 40.2208 515.448 39.2L520.343 0H587.657L592.552 39.2C595.204 40.2208 597.705 41.4458 600.055 42.875C602.404 44.3042 604.697 45.8354 606.933 47.4688L643.343 32.1562L677 90.3438L645.485 114.231C645.689 115.66 645.791 117.041 645.791 118.372V126.628C645.791 127.959 645.587 129.34 645.179 130.769L676.694 154.656L643.037 212.844L606.933 197.531C604.689 199.165 602.343 200.696 599.896 202.125C597.448 203.554 595 204.779 592.552 205.8L587.657 245H520.343ZM554.612 165.375C566.443 165.375 576.54 161.19 584.903 152.819C593.266 144.448 597.448 134.342 597.448 122.5C597.448 110.658 593.266 100.552 584.903 92.1812C576.54 83.8104 566.443 79.625 554.612 79.625C542.577 79.625 532.427 83.8104 524.162 92.1812C515.897 100.552 511.768 110.658 511.776 122.5C511.776 134.342 515.905 144.448 524.162 152.819C532.419 161.19 542.569 165.375 554.612 165.375Z" fill="#61FF47"/>
</svg>
