<svg width="64" height="64" viewBox="0 0 64 64" fill="none" xmlns="http://www.w3.org/2000/svg">
<path d="M59 19.202C59 20.1448 58.6748 20.9461 58.0245 21.6061L32.8013 47.202L28.0632 52.0101C27.4129 52.67 26.6232 53 25.6942 53C24.7652 53 23.9755 52.67 23.3252 52.0101L18.5871 47.202L5.97548 34.404C5.32516 33.7441 5 32.9428 5 32C5 31.0572 5.32516 30.2559 5.97548 29.596L10.7135 24.7879C11.3639 24.1279 12.1535 23.798 13.0826 23.798C14.0116 23.798 14.8013 24.1279 15.4516 24.7879L25.6942 35.2172L48.5484 11.9899C49.1987 11.33 49.9884 11 50.9174 11C51.8465 11 52.6361 11.33 53.2865 11.9899L58.0245 16.798C58.6748 17.4579 59 18.2593 59 19.202Z" fill="#7FC474"/>
</svg>
