<svg width="64" height="64" viewBox="0 0 64 64" fill="none" xmlns="http://www.w3.org/2000/svg">
<path d="M44.9874 8.54285L31.4572 22.0097L23.6481 14.2372L37.1783 0.770324C38.6399 -0.642862 41.5631 -0.0609617 43.6928 2.10038C45.8643 4.22016 46.449 7.12966 44.9874 8.54285ZM11.5794 15.8997L15.3796 11.2445L53.0053 48.694L48.0359 52.1853C45.0709 55.1364 37.053 57.0068 32.0836 57.0068H15.8807L10.7025 62.1608C8.23865 64.6131 4.27146 64.6131 1.84938 62.1608C1.26353 61.5847 0.798396 60.8987 0.480933 60.1424C0.163471 59.3861 0 58.5746 0 57.755C0 56.9353 0.163471 56.1238 0.480933 55.3675C0.798396 54.6112 1.26353 53.9252 1.84938 53.3492L7.02761 48.1952V32.0682C7.02761 27.3715 8.69801 18.8092 11.5794 15.8997ZM41.8971 32.4007L55.4274 18.9339C56.8472 17.4792 59.7704 18.0611 61.9001 20.2224C64.0717 22.3422 64.6563 25.2517 63.1947 26.6649L49.6645 40.1733L41.8971 32.4007Z" fill="#7FC474"/>
</svg>
