<svg width="64" height="64" viewBox="0 0 64 64" fill="none" xmlns="http://www.w3.org/2000/svg">
<path d="M58.1738 12.3769C57.9341 12.1032 57.6406 11.8819 57.3115 11.7269C56.9823 11.5719 56.6248 11.4864 56.2612 11.4759C50.6119 11.3282 43.4636 5.28763 38.7375 2.91716C35.8181 1.45747 33.8907 0.495011 32.4433 0.241472C32.1494 0.198648 31.8508 0.199477 31.5572 0.243934C30.1098 0.497472 28.1824 1.45993 25.2655 2.91963C20.5393 5.28763 13.391 11.3282 7.74178 11.4759C7.37789 11.487 7.02015 11.5726 6.69072 11.7276C6.3613 11.8826 6.06722 12.1036 5.8267 12.3769C5.32817 12.9409 5.07096 13.6781 5.11039 14.4298C6.32393 39.1018 15.1732 54.3707 30.7005 63.2445C31.1042 63.4735 31.5522 63.5916 31.9978 63.5916C32.4433 63.5916 32.8913 63.4735 33.2975 63.2445C48.8249 54.3707 57.6716 39.1018 58.8876 14.4298C58.9293 13.6782 58.6728 12.9404 58.1738 12.3769ZM45.8267 22.0802L32.7239 41.4156C32.2538 42.1098 31.5153 42.5701 30.7842 42.5701C30.0507 42.5701 29.2359 42.1689 28.7215 41.6544L19.4858 32.4162C19.1842 32.1136 19.0149 31.7038 19.0149 31.2765C19.0149 30.8493 19.1842 30.4395 19.4858 30.1369L21.7676 27.8501C22.0709 27.5497 22.4805 27.3813 22.9073 27.3813C23.3341 27.3813 23.7437 27.5497 24.047 27.8501L30.0532 33.8562L40.4876 18.4544C40.729 18.1019 41.1001 17.8593 41.5198 17.7796C41.9395 17.6998 42.3737 17.7893 42.7276 18.0285L45.3984 19.8402C45.7512 20.0813 45.9943 20.4522 46.0746 20.8719C46.1549 21.2916 46.0657 21.726 45.8267 22.0802Z" fill="#7FC474"/>
</svg>
