<svg width="841" height="202" viewBox="0 0 841 202" fill="none" xmlns="http://www.w3.org/2000/svg">
<g clip-path="url(#clip0_4910_4588)">
<path d="M222.836 174.455V134.388H237.524C240.37 134.388 242.726 134.858 244.593 135.797C246.46 136.723 247.857 137.982 248.784 139.573C249.711 141.151 250.174 142.931 250.174 144.914C250.174 146.583 249.868 147.992 249.254 149.139C248.64 150.274 247.818 151.187 246.787 151.878C245.768 152.556 244.645 153.052 243.418 153.365V153.757C244.75 153.822 246.049 154.252 247.315 155.047C248.595 155.83 249.652 156.945 250.488 158.393C251.323 159.841 251.741 161.601 251.741 163.675C251.741 165.723 251.258 167.562 250.292 169.192C249.339 170.809 247.864 172.094 245.866 173.046C243.869 173.985 241.316 174.455 238.209 174.455H222.836ZM228.887 169.27H237.621C240.52 169.27 242.596 168.71 243.849 167.588C245.102 166.466 245.729 165.064 245.729 163.382C245.729 162.117 245.409 160.956 244.77 159.899C244.13 158.843 243.216 158.002 242.028 157.376C240.853 156.75 239.456 156.437 237.837 156.437H228.887V169.27ZM228.887 151.722H236.995C238.353 151.722 239.573 151.461 240.657 150.939C241.753 150.418 242.622 149.687 243.262 148.748C243.914 147.796 244.241 146.675 244.241 145.383C244.241 143.727 243.66 142.338 242.498 141.216C241.336 140.094 239.553 139.534 237.151 139.534H228.887V151.722ZM262.15 185.723C261.275 185.723 260.479 185.651 259.761 185.508C259.043 185.378 258.507 185.234 258.155 185.078L259.565 180.285C260.635 180.572 261.589 180.696 262.424 180.656C263.26 180.617 263.997 180.304 264.637 179.717C265.29 179.13 265.864 178.172 266.36 176.841L267.085 174.846L256.079 144.405H262.346L269.964 167.725H270.277L277.895 144.405H284.182L271.785 178.465C271.21 180.03 270.48 181.354 269.592 182.436C268.704 183.532 267.647 184.354 266.419 184.902C265.192 185.449 263.769 185.723 262.15 185.723ZM326.624 144.914C326.415 143.062 325.554 141.627 324.039 140.61C322.525 139.579 320.619 139.064 318.321 139.064C316.676 139.064 315.253 139.325 314.051 139.847C312.851 140.355 311.917 141.06 311.251 141.96C310.598 142.847 310.272 143.857 310.272 144.992C310.272 145.944 310.494 146.765 310.938 147.457C311.395 148.148 311.989 148.729 312.72 149.198C313.464 149.655 314.26 150.039 315.109 150.352C315.958 150.652 316.774 150.9 317.557 151.096L321.474 152.113C322.753 152.426 324.065 152.85 325.41 153.385C326.755 153.919 328.001 154.624 329.15 155.497C330.299 156.372 331.226 157.454 331.932 158.745C332.649 160.036 333.008 161.582 333.008 163.382C333.008 165.651 332.421 167.666 331.246 169.427C330.084 171.188 328.393 172.576 326.174 173.594C323.967 174.611 321.297 175.12 318.164 175.12C315.161 175.12 312.563 174.644 310.37 173.692C308.176 172.739 306.459 171.39 305.219 169.642C303.979 167.881 303.293 165.794 303.163 163.382H309.234C309.351 164.829 309.822 166.036 310.644 167.001C311.48 167.953 312.544 168.664 313.836 169.133C315.141 169.59 316.571 169.818 318.125 169.818C319.835 169.818 321.356 169.551 322.688 169.016C324.033 168.468 325.09 167.712 325.86 166.746C326.631 165.769 327.016 164.627 327.016 163.323C327.016 162.136 326.676 161.164 325.998 160.408C325.332 159.652 324.424 159.026 323.275 158.53C322.14 158.034 320.853 157.597 319.417 157.219L314.678 155.928C311.466 155.054 308.921 153.769 307.041 152.074C305.174 150.379 304.24 148.135 304.24 145.344C304.24 143.035 304.867 141.02 306.12 139.299C307.373 137.577 309.071 136.24 311.212 135.289C313.353 134.323 315.768 133.841 318.458 133.841C321.173 133.841 323.569 134.317 325.645 135.269C327.734 136.221 329.379 137.532 330.58 139.201C331.781 140.857 332.408 142.762 332.46 144.914H326.624ZM348.524 175.12C346.617 175.12 344.894 174.768 343.354 174.063C341.813 173.346 340.592 172.309 339.691 170.953C338.803 169.597 338.359 167.933 338.359 165.964C338.359 164.268 338.686 162.873 339.339 161.777C339.992 160.682 340.873 159.815 341.983 159.176C343.093 158.537 344.333 158.054 345.704 157.728C347.075 157.402 348.471 157.154 349.895 156.984C351.696 156.776 353.158 156.606 354.281 156.476C355.404 156.332 356.22 156.104 356.729 155.791C357.238 155.478 357.493 154.969 357.493 154.265V154.128C357.493 152.42 357.01 151.096 356.044 150.157C355.091 149.217 353.668 148.748 351.775 148.748C349.803 148.748 348.249 149.185 347.114 150.059C345.991 150.92 345.214 151.878 344.783 152.935L339.28 151.683C339.933 149.857 340.886 148.383 342.139 147.261C343.406 146.126 344.861 145.305 346.507 144.796C348.151 144.274 349.882 144.014 351.696 144.014C352.897 144.014 354.17 144.157 355.515 144.444C356.873 144.718 358.139 145.227 359.314 145.97C360.502 146.714 361.475 147.776 362.232 149.159C362.989 150.529 363.368 152.309 363.368 154.5V174.455H357.65V170.346H357.415C357.036 171.103 356.468 171.846 355.711 172.576C354.953 173.307 353.981 173.913 352.793 174.396C351.605 174.878 350.182 175.12 348.524 175.12ZM349.797 170.425C351.416 170.425 352.799 170.105 353.948 169.466C355.11 168.827 355.992 167.992 356.592 166.962C357.206 165.918 357.513 164.803 357.513 163.616V159.743C357.304 159.952 356.899 160.147 356.299 160.33C355.711 160.499 355.038 160.649 354.281 160.78C353.524 160.897 352.787 161.008 352.068 161.113C351.35 161.203 350.75 161.282 350.267 161.347C349.131 161.49 348.093 161.732 347.153 162.071C346.226 162.41 345.482 162.899 344.92 163.538C344.372 164.164 344.098 164.999 344.098 166.042C344.098 167.49 344.633 168.586 345.704 169.329C346.774 170.059 348.139 170.425 349.797 170.425ZM385.483 144.405V149.1H368.484V144.405H385.483ZM373.145 174.455V140.923C373.145 139.044 373.556 137.486 374.379 136.247C375.201 134.995 376.292 134.062 377.649 133.45C379.007 132.823 380.483 132.51 382.075 132.51C383.251 132.51 384.256 132.608 385.091 132.804C385.927 132.986 386.547 133.156 386.952 133.313L385.581 138.047C385.307 137.969 384.954 137.877 384.523 137.773C384.092 137.656 383.57 137.597 382.956 137.597C381.534 137.597 380.515 137.949 379.902 138.653C379.301 139.358 379 140.375 379 141.705V174.455H373.145ZM391.524 174.455V144.405H397.38V174.455H391.524ZM394.482 139.768C393.463 139.768 392.588 139.429 391.857 138.751C391.139 138.06 390.78 137.238 390.78 136.286C390.78 135.321 391.139 134.499 391.857 133.821C392.588 133.13 393.463 132.784 394.482 132.784C395.5 132.784 396.368 133.13 397.086 133.821C397.817 134.499 398.183 135.321 398.183 136.286C398.183 137.238 397.817 138.06 397.086 138.751C396.368 139.429 395.5 139.768 394.482 139.768ZM418.222 175.061C415.258 175.061 412.706 174.428 410.565 173.164C408.436 171.885 406.792 170.092 405.629 167.784C404.48 165.462 403.906 162.743 403.906 159.626C403.906 156.547 404.48 153.835 405.629 151.487C406.792 149.139 408.41 147.307 410.486 145.99C412.575 144.672 415.016 144.014 417.811 144.014C419.508 144.014 421.153 144.294 422.746 144.855C424.339 145.416 425.768 146.296 427.034 147.496C428.301 148.696 429.3 150.255 430.031 152.172C430.762 154.076 431.127 156.391 431.127 159.117V161.191H407.216V156.808H425.39C425.39 155.269 425.076 153.906 424.449 152.719C423.823 151.52 422.942 150.574 421.806 149.883C420.683 149.192 419.364 148.846 417.85 148.846C416.205 148.846 414.769 149.25 413.541 150.059C412.327 150.855 411.387 151.898 410.721 153.189C410.068 154.467 409.742 155.856 409.742 157.356V160.78C409.742 162.788 410.094 164.497 410.799 165.905C411.518 167.314 412.516 168.39 413.796 169.133C415.075 169.864 416.57 170.229 418.281 170.229C419.391 170.229 420.402 170.073 421.316 169.76C422.23 169.433 423.02 168.951 423.686 168.312C424.352 167.672 424.861 166.884 425.213 165.944L430.756 166.942C430.312 168.572 429.515 170.001 428.366 171.227C427.23 172.44 425.8 173.385 424.077 174.063C422.367 174.729 420.415 175.061 418.222 175.061ZM443.48 156.613V174.455H437.626V144.405H443.246V149.296H443.618C444.308 147.705 445.392 146.427 446.867 145.462C448.356 144.496 450.231 144.014 452.488 144.014C454.537 144.014 456.334 144.444 457.874 145.305C459.413 146.153 460.608 147.418 461.458 149.1C462.304 150.783 462.731 152.863 462.731 155.341V174.455H456.877V156.046C456.877 153.867 456.307 152.165 455.172 150.939C454.037 149.7 452.474 149.081 450.489 149.081C449.133 149.081 447.924 149.374 446.867 149.961C445.824 150.548 444.992 151.409 444.381 152.544C443.779 153.665 443.48 155.021 443.48 156.613ZM484.625 144.405V149.1H468.196V144.405H484.625ZM472.603 137.206H478.458V165.631C478.458 166.766 478.628 167.621 478.963 168.194C479.303 168.755 479.744 169.14 480.278 169.349C480.824 169.544 481.422 169.642 482.061 169.642C482.529 169.642 482.943 169.609 483.292 169.544C483.646 169.479 483.922 169.427 484.115 169.388L485.172 174.22C484.832 174.35 484.349 174.481 483.724 174.611C483.099 174.754 482.313 174.833 481.376 174.846C479.832 174.872 478.398 174.598 477.065 174.024C475.732 173.45 474.657 172.564 473.834 171.364C473.012 170.164 472.603 168.657 472.603 166.844V137.206Z" fill="#4A5166"/>
<path d="M767.572 123.955H600.218C595.503 123.955 591.684 127.715 591.684 132.353V182.741C591.684 187.379 595.503 191.138 600.218 191.138H767.572C772.287 191.138 776.111 187.379 776.111 182.741V132.353C776.111 127.715 772.287 123.955 767.572 123.955Z" fill="url(#paint0_linear_4910_4588)"/>
<path d="M624.646 176V139.636H639.206C641.881 139.636 644.112 140.033 645.899 140.826C647.687 141.619 649.03 142.72 649.93 144.129C650.83 145.525 651.279 147.135 651.279 148.958C651.279 150.379 650.995 151.627 650.427 152.705C649.859 153.77 649.078 154.646 648.083 155.332C647.101 156.007 645.976 156.487 644.71 156.771V157.126C646.095 157.185 647.391 157.576 648.598 158.298C649.818 159.02 650.806 160.032 651.563 161.334C652.321 162.624 652.7 164.163 652.7 165.95C652.7 167.88 652.22 169.602 651.262 171.117C650.315 172.621 648.912 173.81 647.054 174.686C645.195 175.562 642.905 176 640.182 176H624.646ZM632.334 169.714H638.602C640.744 169.714 642.307 169.306 643.289 168.489C644.272 167.661 644.763 166.56 644.763 165.187C644.763 164.181 644.52 163.293 644.035 162.523C643.55 161.754 642.857 161.15 641.958 160.712C641.07 160.274 640.01 160.055 638.779 160.055H632.334V169.714ZM632.334 154.853H638.034C639.087 154.853 640.022 154.67 640.839 154.303C641.668 153.924 642.319 153.391 642.792 152.705C643.277 152.018 643.52 151.195 643.52 150.237C643.52 148.923 643.053 147.863 642.117 147.058C641.194 146.253 639.88 145.851 638.176 145.851H632.334V154.853ZM657.703 176V139.636H682.205V145.975H665.391V154.64H680.945V160.979H665.391V169.661H682.276V176H657.703ZM686.933 145.975V139.636H716.798V145.975H705.665V176H698.066V145.975H686.933ZM723.541 176H715.302L727.855 139.636H737.763L750.298 176H742.06L732.951 147.946H732.667L723.541 176ZM723.026 161.707H742.486V167.708H723.026V161.707Z" fill="#D7E0FE"/>
<path d="M219.588 13.7273H235.568L263.352 81.5682H264.375L292.159 13.7273H308.139V101H295.611V37.8466H294.801L269.062 100.872H258.665L232.926 37.804H232.116V101H219.588V13.7273ZM354.471 102.321C348.022 102.321 342.468 100.943 337.809 98.1875C333.178 95.4034 329.599 91.4972 327.07 86.4688C324.57 81.4119 323.32 75.4886 323.32 68.6989C323.32 61.9943 324.57 56.0852 327.07 50.9716C329.599 45.858 333.121 41.8665 337.638 38.9972C342.184 36.1278 347.496 34.6932 353.576 34.6932C357.269 34.6932 360.849 35.304 364.315 36.5256C367.781 37.7472 370.891 39.6648 373.647 42.2784C376.403 44.892 378.576 48.2869 380.167 52.4631C381.758 56.6108 382.553 61.6534 382.553 67.5909V72.108H330.522V62.5625H370.067C370.067 59.2102 369.386 56.2415 368.022 53.6562C366.658 51.0426 364.741 48.983 362.269 47.4773C359.826 45.9716 356.957 45.2188 353.661 45.2188C350.082 45.2188 346.957 46.0994 344.286 47.8608C341.644 49.5937 339.599 51.8665 338.15 54.679C336.729 57.4631 336.019 60.4886 336.019 63.7557V71.2131C336.019 75.5881 336.786 79.3097 338.32 82.3778C339.883 85.446 342.056 87.7898 344.84 89.4091C347.624 91 350.877 91.7955 354.599 91.7955C357.013 91.7955 359.215 91.4545 361.204 90.7727C363.192 90.0625 364.911 89.0114 366.36 87.6193C367.809 86.2273 368.917 84.5085 369.684 82.4631L381.744 84.6364C380.778 88.1875 379.045 91.2983 376.545 93.9688C374.073 96.6108 370.962 98.6705 367.212 100.148C363.491 101.597 359.244 102.321 354.471 102.321ZM427.244 35.5455V45.7727H391.491V35.5455H427.244ZM401.08 19.8636H413.821V81.7812C413.821 84.2528 414.19 86.1136 414.929 87.3636C415.668 88.5852 416.619 89.4233 417.784 89.8778C418.977 90.304 420.27 90.517 421.662 90.517C422.685 90.517 423.58 90.446 424.347 90.304C425.114 90.1619 425.71 90.0483 426.136 89.9631L428.438 100.489C427.699 100.773 426.648 101.057 425.284 101.341C423.92 101.653 422.216 101.824 420.17 101.852C416.818 101.909 413.693 101.312 410.795 100.062C407.898 98.8125 405.554 96.8807 403.764 94.267C401.974 91.6534 401.08 88.3722 401.08 84.4233V19.8636ZM460.387 102.449C456.239 102.449 452.489 101.682 449.137 100.148C445.785 98.5852 443.129 96.3267 441.168 93.3722C439.237 90.4176 438.271 86.7955 438.271 82.5057C438.271 78.8125 438.981 75.7727 440.401 73.3864C441.822 71 443.739 69.1108 446.154 67.7188C448.569 66.3267 451.268 65.2756 454.251 64.5653C457.234 63.8551 460.273 63.3153 463.37 62.946C467.29 62.4915 470.472 62.1222 472.915 61.8381C475.359 61.5256 477.134 61.0284 478.242 60.3466C479.35 59.6648 479.904 58.5568 479.904 57.0227V56.7244C479.904 53.0028 478.853 50.1193 476.751 48.0739C474.677 46.0284 471.58 45.0057 467.461 45.0057C463.171 45.0057 459.79 45.9574 457.319 47.8608C454.876 49.7358 453.185 51.8239 452.248 54.125L440.273 51.3977C441.694 47.4205 443.768 44.2102 446.495 41.767C449.251 39.2955 452.418 37.5057 455.998 36.3977C459.577 35.2614 463.342 34.6932 467.29 34.6932C469.904 34.6932 472.674 35.0057 475.6 35.6307C478.555 36.2273 481.31 37.3352 483.867 38.9545C486.452 40.5739 488.569 42.8892 490.217 45.9006C491.864 48.8835 492.688 52.7614 492.688 57.5341V101H480.245V92.0511H479.734C478.91 93.6989 477.674 95.3182 476.026 96.9091C474.379 98.5 472.262 99.821 469.677 100.872C467.092 101.923 463.995 102.449 460.387 102.449ZM463.157 92.2216C466.68 92.2216 469.691 91.5256 472.191 90.1335C474.719 88.7415 476.637 86.9233 477.944 84.679C479.279 82.4062 479.947 79.9773 479.947 77.392V68.9545C479.492 69.4091 478.612 69.8352 477.305 70.233C476.026 70.6023 474.563 70.929 472.915 71.2131C471.268 71.4687 469.663 71.7102 468.1 71.9375C466.538 72.1364 465.231 72.3068 464.18 72.4489C461.708 72.7614 459.45 73.2869 457.404 74.0256C455.387 74.7642 453.768 75.8295 452.546 77.2216C451.353 78.5852 450.756 80.4034 450.756 82.6761C450.756 85.8295 451.921 88.2159 454.251 89.8352C456.58 91.4261 459.549 92.2216 463.157 92.2216ZM558.281 36.6534C557.827 32.6193 555.952 29.4943 552.656 27.2784C549.361 25.0341 545.213 23.9119 540.213 23.9119C536.634 23.9119 533.537 24.4801 530.923 25.6165C528.31 26.7244 526.278 28.2585 524.83 30.2188C523.409 32.1506 522.699 34.3523 522.699 36.8239C522.699 38.8977 523.182 40.6875 524.148 42.1932C525.142 43.6989 526.435 44.9631 528.026 45.9858C529.645 46.9801 531.378 47.8182 533.224 48.5C535.071 49.1534 536.847 49.6932 538.551 50.1193L547.074 52.3352C549.858 53.017 552.713 53.9403 555.639 55.1051C558.565 56.2699 561.278 57.804 563.778 59.7074C566.278 61.6108 568.295 63.9688 569.83 66.7812C571.392 69.5938 572.173 72.9602 572.173 76.8807C572.173 81.8239 570.895 86.2131 568.338 90.0483C565.81 93.8835 562.131 96.9091 557.301 99.125C552.5 101.341 546.69 102.449 539.872 102.449C533.338 102.449 527.685 101.412 522.912 99.3381C518.139 97.2642 514.403 94.3239 511.705 90.517C509.006 86.6818 507.514 82.1364 507.23 76.8807H520.44C520.696 80.0341 521.719 82.6619 523.509 84.7642C525.327 86.8381 527.642 88.3864 530.455 89.4091C533.295 90.4034 536.406 90.9006 539.787 90.9006C543.509 90.9006 546.818 90.3182 549.716 89.1534C552.642 87.9602 554.943 86.3125 556.619 84.2102C558.295 82.0795 559.134 79.5937 559.134 76.7528C559.134 74.1676 558.395 72.0511 556.918 70.4034C555.469 68.7557 553.494 67.392 550.994 66.3125C548.523 65.233 545.724 64.2812 542.599 63.4574L532.287 60.6449C525.298 58.7415 519.759 55.9432 515.668 52.25C511.605 48.5568 509.574 43.6705 509.574 37.5909C509.574 32.5625 510.938 28.1733 513.665 24.4233C516.392 20.6733 520.085 17.7614 524.744 15.6875C529.403 13.5852 534.659 12.5341 540.511 12.5341C546.42 12.5341 551.634 13.571 556.151 15.6449C560.696 17.7188 564.276 20.5739 566.889 24.2102C569.503 27.8182 570.866 31.9659 570.98 36.6534H558.281ZM605.934 102.449C601.786 102.449 598.036 101.682 594.684 100.148C591.332 98.5852 588.675 96.3267 586.715 93.3722C584.783 90.4176 583.817 86.7955 583.817 82.5057C583.817 78.8125 584.528 75.7727 585.948 73.3864C587.369 71 589.286 69.1108 591.701 67.7188C594.116 66.3267 596.815 65.2756 599.798 64.5653C602.781 63.8551 605.82 63.3153 608.917 62.946C612.837 62.4915 616.019 62.1222 618.462 61.8381C620.906 61.5256 622.681 61.0284 623.789 60.3466C624.897 59.6648 625.451 58.5568 625.451 57.0227V56.7244C625.451 53.0028 624.4 50.1193 622.298 48.0739C620.224 46.0284 617.127 45.0057 613.008 45.0057C608.718 45.0057 605.337 45.9574 602.866 47.8608C600.423 49.7358 598.732 51.8239 597.795 54.125L585.82 51.3977C587.241 47.4205 589.315 44.2102 592.042 41.767C594.798 39.2955 597.965 37.5057 601.545 36.3977C605.124 35.2614 608.888 34.6932 612.837 34.6932C615.451 34.6932 618.221 35.0057 621.147 35.6307C624.102 36.2273 626.857 37.3352 629.414 38.9545C631.999 40.5739 634.116 42.8892 635.763 45.9006C637.411 48.8835 638.235 52.7614 638.235 57.5341V101H625.792V92.0511H625.281C624.457 93.6989 623.221 95.3182 621.573 96.9091C619.925 98.5 617.809 99.821 615.224 100.872C612.638 101.923 609.542 102.449 605.934 102.449ZM608.704 92.2216C612.227 92.2216 615.238 91.5256 617.738 90.1335C620.266 88.7415 622.184 86.9233 623.491 84.679C624.826 82.4062 625.494 79.9773 625.494 77.392V68.9545C625.039 69.4091 624.158 69.8352 622.852 70.233C621.573 70.6023 620.11 70.929 618.462 71.2131C616.815 71.4687 615.21 71.7102 613.647 71.9375C612.085 72.1364 610.778 72.3068 609.727 72.4489C607.255 72.7614 604.996 73.2869 602.951 74.0256C600.934 74.7642 599.315 75.8295 598.093 77.2216C596.9 78.5852 596.303 80.4034 596.303 82.6761C596.303 85.8295 597.468 88.2159 599.798 89.8352C602.127 91.4261 605.096 92.2216 608.704 92.2216ZM686.357 35.5455V45.7727H649.368V35.5455H686.357ZM659.51 101V27.9602C659.51 23.8693 660.405 20.4744 662.195 17.7756C663.984 15.0483 666.357 13.017 669.311 11.6818C672.266 10.3182 675.476 9.63636 678.942 9.63636C681.499 9.63636 683.686 9.84943 685.504 10.2756C687.322 10.6733 688.672 11.0426 689.553 11.3835L686.57 21.696C685.973 21.5256 685.206 21.3267 684.268 21.0994C683.331 20.8437 682.195 20.7159 680.859 20.7159C677.763 20.7159 675.547 21.483 674.212 23.017C672.905 24.5511 672.251 26.767 672.251 29.6648V101H659.51ZM725.135 102.321C718.686 102.321 713.132 100.943 708.473 98.1875C703.842 95.4034 700.263 91.4972 697.734 86.4688C695.234 81.4119 693.984 75.4886 693.984 68.6989C693.984 61.9943 695.234 56.0852 697.734 50.9716C700.263 45.858 703.786 41.8665 708.303 38.9972C712.848 36.1278 718.161 34.6932 724.24 34.6932C727.933 34.6932 731.513 35.304 734.979 36.5256C738.445 37.7472 741.555 39.6648 744.311 42.2784C747.067 44.892 749.24 48.2869 750.831 52.4631C752.422 56.6108 753.217 61.6534 753.217 67.5909V72.108H701.186V62.5625H740.732C740.732 59.2102 740.05 56.2415 738.686 53.6562C737.322 51.0426 735.405 48.983 732.933 47.4773C730.49 45.9716 727.621 45.2188 724.325 45.2188C720.746 45.2188 717.621 46.0994 714.95 47.8608C712.308 49.5937 710.263 51.8665 708.814 54.679C707.393 57.4631 706.683 60.4886 706.683 63.7557V71.2131C706.683 75.5881 707.45 79.3097 708.984 82.3778C710.547 85.446 712.72 87.7898 715.504 89.4091C718.288 91 721.541 91.7955 725.263 91.7955C727.678 91.7955 729.879 91.4545 731.868 90.7727C733.857 90.0625 735.575 89.0114 737.024 87.6193C738.473 86.2273 739.581 84.5085 740.348 82.4631L752.408 84.6364C751.442 88.1875 749.709 91.2983 747.209 93.9688C744.737 96.6108 741.626 98.6705 737.876 100.148C734.155 101.597 729.908 102.321 725.135 102.321Z" fill="url(#paint1_linear_4910_4588)"/>
<path d="M137.869 0H45.9563C20.5753 0 0 20.5542 0 45.9091V137.727C0 163.082 20.5753 183.636 45.9563 183.636H137.869C163.25 183.636 183.825 163.082 183.825 137.727V45.9091C183.825 20.5542 163.25 0 137.869 0Z" fill="url(#paint2_linear_4910_4588)"/>
<g clip-path="url(#clip1_4910_4588)">
<path d="M142.003 50.2434L94.3636 30.3742C93.7728 30.1278 93.1394 30.001 92.4996 30.001C91.8599 30.001 91.2265 30.1278 90.6357 30.3742L42.9975 50.2434C42.1104 50.6133 41.3524 51.2388 40.8189 52.0409C40.2855 52.8431 40.0005 53.7861 40 54.7508V78.9C39.9959 95.152 44.8131 111.037 53.8369 124.526C62.8607 138.016 75.6817 148.499 90.6633 154.636C91.8417 155.12 93.1619 155.12 94.3403 154.636C109.321 148.498 122.141 138.016 131.164 124.527C140.187 111.038 145.004 95.1539 145 78.9028V54.7536C145 53.7884 144.715 52.8448 144.182 52.042C143.648 51.2393 142.89 50.6134 142.003 50.2434V50.2434ZM135.278 78.9028C135.28 92.8735 131.237 106.543 123.641 118.246C116.045 129.949 105.224 139.181 92.4975 144.816C79.7706 139.181 68.9501 129.949 61.3543 118.246C53.7584 106.543 49.7152 92.8735 49.7172 78.9028V58.0109L92.4975 40.1703L135.278 58.0109V78.9028ZM87.127 95.3613L108.024 74.3741C108.476 73.9207 109.012 73.5611 109.601 73.3157C110.191 73.0703 110.823 72.944 111.462 72.944C112.1 72.944 112.732 73.0703 113.322 73.3157C113.912 73.5611 114.447 73.9207 114.899 74.3741C115.35 74.8275 115.708 75.3658 115.953 75.9582C116.197 76.5506 116.323 77.1856 116.323 77.8268C116.323 78.468 116.197 79.1029 115.953 79.6953C115.708 80.2877 115.35 80.826 114.899 81.2794L90.5643 105.716C89.6526 106.631 88.4162 107.146 87.127 107.146C85.8378 107.146 84.6014 106.631 83.6897 105.716L70.1047 92.0727C69.193 91.1566 68.681 89.9143 68.6813 88.6191C68.6816 87.3238 69.1941 86.0817 70.1061 85.166C71.0181 84.2503 72.2549 83.736 73.5443 83.7363C74.8338 83.7366 76.0704 84.2514 76.982 85.1674L87.127 95.3613Z" fill="white"/>
</g>
</g>
<defs>
<linearGradient id="paint0_linear_4910_4588" x1="528.374" y1="137.811" x2="814.824" y2="132.077" gradientUnits="userSpaceOnUse">
<stop offset="0.0885417" stop-color="#44BCF0"/>
<stop offset="0.567708" stop-color="#818CF8"/>
<stop offset="1" stop-color="#A099FF"/>
</linearGradient>
<linearGradient id="paint1_linear_4910_4588" x1="-22.0478" y1="33.1187" x2="1024.64" y2="-29.0465" gradientUnits="userSpaceOnUse">
<stop offset="0.0885417" stop-color="#44BCF0"/>
<stop offset="0.567708" stop-color="#818CF8"/>
<stop offset="1" stop-color="#A099FF"/>
</linearGradient>
<linearGradient id="paint2_linear_4910_4588" x1="19" y1="-55" x2="218.5" y2="289" gradientUnits="userSpaceOnUse">
<stop offset="0.0885417" stop-color="#D844F0"/>
<stop offset="0.567708" stop-color="#818CF8"/>
<stop offset="1" stop-color="#A099FF"/>
</linearGradient>
<clipPath id="clip0_4910_4588">
<rect width="841" height="202" fill="white"/>
</clipPath>
<clipPath id="clip1_4910_4588">
<rect width="105" height="125" fill="white" transform="translate(40 30)"/>
</clipPath>
</defs>
</svg>
