<svg width="156" height="50" viewBox="0 0 156 50" fill="none" xmlns="http://www.w3.org/2000/svg">
<g clip-path="url(#clip0_4819_4592)">
<mask id="mask0_4819_4592" style="mask-type:luminance" maskUnits="userSpaceOnUse" x="0" y="-1" width="156" height="51">
<path d="M155.652 -0.00195312H0V49.998H155.652V-0.00195312Z" fill="white"/>
</mask>
<g mask="url(#mask0_4819_4592)">
<path d="M108.406 7.64287C106.892 7.72363 105.439 8.26322 104.239 9.18992V-0.00195312H99.3867V28.1921H104.239V16.6233C104.239 15.5182 104.678 14.4584 105.46 13.6769C106.241 12.8955 107.301 12.4565 108.406 12.4565C109.511 12.4565 110.571 12.8955 111.353 13.6769C112.134 14.4584 112.573 15.5182 112.573 16.6233V28.1921H117.388V16.6233C117.388 14.2413 116.441 11.9568 114.757 10.2724C113.073 8.58808 110.788 7.64287 108.406 7.64287Z" fill="#FB5B51"/>
<path d="M21.0341 -0.00195312H0V4.8506H8.08866V28.1921H12.9412V4.8506H21.0341V-0.00195312Z" fill="#FB5B51"/>
<path d="M91.211 18.2454V12.9049H96.3033V8.05234H91.211V0.813477H86.3584V8.05234H82.9688V12.9049H86.3584V22.5206C86.3584 24.0246 86.9558 25.467 88.0193 26.5304C89.0828 27.5939 90.5252 28.1914 92.0292 28.1914H96.3033V23.3683H91.211V18.2454Z" fill="#FB5B51"/>
<path d="M152.67 8.05274C150.638 8.05129 148.667 8.73908 147.077 10.0036L146.64 8.05274H143.65V28.1918H148.468V16.6725C148.468 16.1732 148.567 15.6788 148.758 15.2176C148.949 14.7563 149.229 14.3372 149.582 13.9841C149.935 13.6311 150.354 13.351 150.815 13.16C151.277 12.9689 151.771 12.8706 152.27 12.8706H155.652V8.05274H152.67Z" fill="#FB5B51"/>
<path d="M71.6189 7.56934C69.7078 7.57 67.8332 8.09204 66.1968 9.07923C64.5605 10.0664 63.2245 11.4814 62.3327 13.1716C61.441 14.8619 61.0273 16.7634 61.1362 18.6713C61.2451 20.5793 61.8726 22.4214 62.9509 23.9992C64.0292 25.5769 65.5175 26.8306 67.2556 27.6252C68.9937 28.4197 70.9156 28.725 72.8143 28.5082C74.713 28.2914 76.5166 27.5606 78.0308 26.3946C79.5449 25.2287 80.7123 23.6717 81.4071 21.8914H76.2632C75.5723 22.7322 74.6662 23.3697 73.6415 23.736C72.6168 24.1023 71.5119 24.1836 70.4446 23.9712C69.3773 23.7589 68.3876 23.2609 67.5811 22.5303C66.7746 21.7997 66.1815 20.8639 65.865 19.8227H81.7037C81.7844 19.8147 81.8601 19.7797 81.9184 19.7234C81.9768 19.6672 82.0146 19.5928 82.0255 19.5125C82.2296 18.0263 82.113 16.5136 81.6837 15.0762C81.2543 13.6388 80.522 12.3101 79.5362 11.1794C78.5503 10.0486 77.3337 9.14215 75.9683 8.52091C74.6028 7.89967 73.1201 7.57807 71.62 7.57775M66.0459 15.8189C66.4963 14.7111 67.2669 13.7628 68.259 13.0951C69.2512 12.4275 70.4199 12.0709 71.6157 12.0709C72.8116 12.0709 73.9803 12.4275 74.9725 13.0951C75.9646 13.7628 76.7352 14.7111 77.1856 15.8189H66.0459Z" fill="#FB5B51"/>
<path d="M130.433 7.56956C128.523 7.56989 126.649 8.09136 125.013 9.07779C123.378 10.0642 122.042 11.4782 121.151 13.1675C120.259 14.8567 119.846 16.7572 119.955 18.6641C120.063 20.571 120.69 22.4122 121.768 23.9891C122.846 25.5661 124.333 26.8192 126.07 27.6133C127.807 28.4075 129.728 28.7126 131.626 28.4958C133.524 28.279 135.326 27.5486 136.839 26.3832C138.353 25.2178 139.519 23.6615 140.214 21.8822H135.073C134.382 22.7219 133.476 23.3584 132.452 23.7239C131.427 24.0893 130.323 24.1699 129.257 23.9572C128.19 23.7444 127.201 23.2462 126.396 22.5158C125.59 21.7853 124.998 20.8499 124.682 19.8093H140.51C140.592 19.801 140.668 19.7653 140.726 19.708C140.785 19.6506 140.822 19.5751 140.832 19.4938C141.036 18.0084 140.92 16.4966 140.491 15.0601C140.062 13.6235 139.33 12.2955 138.344 11.1654C137.359 10.0354 136.143 9.12947 134.779 8.50866C133.414 7.88786 131.932 7.56656 130.433 7.56641M124.866 15.8012C125.316 14.6937 126.086 13.7456 127.078 13.0781C128.069 12.4106 129.237 12.054 130.433 12.054C131.628 12.054 132.796 12.4106 133.788 13.0781C134.78 13.7456 135.55 14.6937 135.999 15.8012H124.866Z" fill="#FB5B51"/>
<path d="M27.2896 12.0582C28.4744 12.0585 29.6326 12.409 30.6187 13.0656C31.6049 13.7222 32.3749 14.6557 32.8321 15.7487H37.5322C36.961 13.229 35.4813 11.0081 33.3758 9.51066C31.2704 8.01323 28.6869 7.34425 26.1193 7.63161C23.5517 7.91897 21.18 9.14251 19.4577 11.0683C17.7354 12.9942 16.7832 15.4872 16.7832 18.0708C16.7832 20.6545 17.7354 23.1475 19.4577 25.0733C21.18 26.9992 23.5517 28.2227 26.1193 28.5101C28.6869 28.7974 31.2704 28.1284 33.3758 26.631C35.4813 25.1336 36.961 22.9127 37.5322 20.393H32.8374C32.4174 21.397 31.7328 22.2683 30.8566 22.9139C29.9805 23.5596 28.9456 23.9554 27.8622 24.0591C26.7788 24.1629 25.6875 23.9708 24.7047 23.5033C23.7219 23.0358 22.8844 22.3103 22.2814 21.4043C21.6784 20.4983 21.3326 19.4456 21.2807 18.3585C21.2288 17.2714 21.4729 16.1906 21.9869 15.2313C22.5009 14.2719 23.2656 13.4701 24.1994 12.9111C25.1333 12.3521 26.2013 12.0581 27.2896 12.0582Z" fill="#FB5B51"/>
<path d="M46.3812 28.315V23.616C44.9247 23.0057 43.7657 21.8483 43.1535 20.3926H38.4629C38.9012 22.3255 39.8773 24.095 41.2784 25.4969C42.6795 26.8987 44.4485 27.8757 46.3812 28.315Z" fill="#FB5B51"/>
<path d="M51.0258 29.2471V33.9429C52.3086 34.4795 53.366 35.4437 54.0183 36.6717C54.6706 37.8996 54.8775 39.3156 54.6039 40.6789C54.3302 42.0422 53.5929 43.2686 52.5173 44.1498C51.4417 45.031 50.0942 45.5125 48.7037 45.5125C47.3132 45.5125 45.9656 45.031 44.89 44.1498C43.8144 43.2686 43.0771 42.0422 42.8035 40.6789C42.5299 39.3156 42.7368 37.8996 43.3891 36.6717C44.0413 35.4437 45.0987 34.4795 46.3815 33.9429V29.2471C43.8618 29.8182 41.6409 31.298 40.1435 33.4034C38.646 35.5088 37.9771 38.0923 38.2644 40.6599C38.5518 43.2275 39.7753 45.5992 41.7012 47.3215C43.627 49.0438 46.12 49.996 48.7037 49.996C51.2873 49.996 53.7804 49.0438 55.7062 47.3215C57.632 45.5992 58.8556 43.2275 59.1429 40.6599C59.4303 38.0923 58.7613 35.5088 57.2639 33.4034C55.7664 31.298 53.5456 29.8182 51.0258 29.2471Z" fill="#FB5B51"/>
<path d="M58.5411 10.5602V7.57129H48.9065C48.8392 7.57129 48.7719 7.57129 48.7046 7.57129C46.3223 7.57131 44.0108 8.38118 42.1494 9.86797C40.288 11.3548 38.9874 13.4302 38.4609 15.7535H43.1568C43.5371 14.8419 44.1362 14.038 44.901 13.4129C45.6658 12.7878 46.5728 12.3607 47.5419 12.1693C48.511 11.978 49.5123 12.0283 50.4573 12.3158C51.4023 12.6034 52.2619 13.1193 52.9602 13.8179C53.6585 14.5166 54.1739 15.3765 54.4609 16.3216C54.748 17.2668 54.7978 18.2681 54.6059 19.2371C54.4141 20.206 53.9865 21.1128 53.3609 21.8773C52.7354 22.6418 51.9312 23.2404 51.0193 23.6203V28.3161C52.8088 27.911 54.4609 27.0443 55.8113 25.8024C57.1617 24.5604 58.1633 22.9864 58.7164 21.2371C59.2695 19.4877 59.3549 17.6241 58.964 15.8315C58.573 14.0389 57.7195 12.38 56.4882 11.0198L58.5411 10.5602Z" fill="#FB5B51"/>
</g>
</g>
<defs>
<clipPath id="clip0_4819_4592">
<rect width="155.652" height="50" fill="white"/>
</clipPath>
</defs>
</svg>
