<svg width="745" height="170" viewBox="0 0 745 170" fill="none" xmlns="http://www.w3.org/2000/svg">
<g filter="url(#filter0_d_5054_4625)">
<path d="M125.5 0H44.5C22.1325 0 4 18.1325 4 40.5001V121.5C4 143.868 22.1325 162 44.5 162H125.5C147.868 162 166 143.868 166 121.5V40.5001C166 18.1325 147.868 0 125.5 0Z" fill="url(#paint0_linear_5054_4625)"/>
<g clip-path="url(#clip0_5054_4625)">
<path d="M129.143 44.3233L87.16 26.7951C86.6394 26.5777 86.0811 26.4658 85.5174 26.4658C84.9536 26.4658 84.3954 26.5777 83.8747 26.7951L41.8924 44.3233C41.1107 44.6496 40.4427 45.2014 39.9726 45.909C39.5024 46.6167 39.2513 47.4485 39.2509 48.2996V69.6036C39.2472 83.9408 43.4925 97.9539 51.445 109.854C59.3974 121.754 70.6962 131.002 83.899 136.417C84.9375 136.843 86.101 136.843 87.1395 136.417C100.341 131.002 111.639 121.754 119.591 109.854C127.543 97.9547 131.788 83.9425 131.785 69.6061V48.3021C131.785 47.4506 131.534 46.6182 131.064 45.91C130.593 45.2018 129.925 44.6497 129.143 44.3233V44.3233ZM123.217 69.6061C123.218 81.9307 119.655 93.9897 112.961 104.314C106.267 114.638 96.7314 122.782 85.5155 127.753C74.2996 122.782 64.7638 114.638 58.0698 104.314C51.3758 93.9897 47.8126 81.9307 47.8143 69.6061V51.1756L85.5155 35.437L123.217 51.1756V69.6061ZM80.7826 84.1253L99.1989 65.6109C99.5966 65.211 100.069 64.8937 100.589 64.6772C101.108 64.4607 101.665 64.3493 102.228 64.3493C102.791 64.3493 103.348 64.4607 103.867 64.6772C104.387 64.8937 104.859 65.211 105.257 65.6109C105.655 66.0109 105.971 66.4858 106.186 67.0084C106.401 67.531 106.512 68.0911 106.512 68.6568C106.512 69.2224 106.401 69.7826 106.186 70.3052C105.971 70.8278 105.655 71.3026 105.257 71.7026L83.8118 93.2597C83.0084 94.0675 81.9187 94.5212 80.7826 94.5212C79.6465 94.5212 78.5569 94.0675 77.7534 93.2597L65.7813 81.2242C64.9779 80.4161 64.5267 79.3202 64.5269 78.1775C64.5271 77.0349 64.9788 75.9391 65.7825 75.1313C66.5862 74.3235 67.6762 73.8698 68.8126 73.87C69.949 73.8703 71.0387 74.3244 71.8421 75.1326L80.7826 84.1253Z" fill="#28293D"/>
</g>
</g>
<path d="M204.54 117V107.874L240.832 56.9503H204.469V44.2727H260.151V53.3991L223.822 104.322H260.222V117H204.54ZM296.594 118.065C290.983 118.065 286.154 116.929 282.105 114.656C278.081 112.36 274.98 109.116 272.801 104.926C270.623 100.712 269.534 95.7287 269.534 89.9759C269.534 84.3651 270.623 79.4408 272.801 75.2031C274.98 70.9654 278.045 67.6629 281.999 65.2955C285.976 62.928 290.64 61.7443 295.99 61.7443C299.589 61.7443 302.939 62.3243 306.04 63.4844C309.165 64.6207 311.888 66.3371 314.208 68.6335C316.551 70.9299 318.374 73.8182 319.676 77.2983C320.979 80.7547 321.63 84.803 321.63 89.4432V93.598H275.571V84.223H307.39C307.39 82.045 306.916 80.1155 305.969 78.4347C305.022 76.7538 303.708 75.4399 302.027 74.4929C300.37 73.5223 298.441 73.0369 296.239 73.0369C293.943 73.0369 291.907 73.5696 290.131 74.6349C288.379 75.6766 287.006 77.0852 286.012 78.8608C285.017 80.6127 284.508 82.5658 284.485 84.7202V93.6335C284.485 96.3324 284.982 98.6643 285.976 100.629C286.994 102.594 288.426 104.109 290.273 105.175C292.12 106.24 294.31 106.773 296.843 106.773C298.524 106.773 300.062 106.536 301.459 106.062C302.856 105.589 304.051 104.879 305.046 103.932C306.04 102.985 306.798 101.825 307.319 100.452L321.31 101.375C320.6 104.737 319.144 107.672 316.942 110.182C314.764 112.668 311.947 114.609 308.49 116.006C305.058 117.379 301.092 118.065 296.594 118.065ZM346.63 85.4659V117H331.502V62.4545H345.919V72.0781H346.559C347.766 68.9058 349.79 66.3963 352.631 64.5497C355.472 62.6795 358.917 61.7443 362.965 61.7443C366.753 61.7443 370.055 62.5729 372.873 64.2301C375.69 65.8873 377.88 68.2547 379.442 71.3324C381.005 74.3864 381.786 78.0322 381.786 82.2699V117H366.658V84.9688C366.682 81.6307 365.829 79.0265 364.101 77.1562C362.373 75.2623 359.994 74.3153 356.963 74.3153C354.927 74.3153 353.128 74.7533 351.566 75.6293C350.027 76.5052 348.819 77.7836 347.944 79.4645C347.091 81.1217 346.653 83.1222 346.63 85.4659ZM442.217 67.7812C441.72 66.053 441.022 64.526 440.122 63.2003C439.223 61.8509 438.122 60.7145 436.82 59.7912C435.541 58.8442 434.073 58.1222 432.416 57.625C430.783 57.1278 428.972 56.8793 426.983 56.8793C423.266 56.8793 419.999 57.8026 417.182 59.6491C414.388 61.4957 412.21 64.1828 410.648 67.7102C409.085 71.214 408.304 75.4991 408.304 80.5653C408.304 85.6316 409.073 89.9403 410.612 93.4915C412.151 97.0426 414.329 99.7533 417.146 101.624C419.964 103.47 423.29 104.393 427.125 104.393C430.605 104.393 433.576 103.778 436.038 102.547C438.524 101.292 440.418 99.5284 441.72 97.2557C443.046 94.983 443.709 92.2959 443.709 89.1946L446.834 89.6562H428.084V78.0795H458.517V87.2415C458.517 93.6335 457.168 99.1259 454.469 103.719C451.77 108.288 448.053 111.815 443.318 114.301C438.583 116.763 433.162 117.994 427.054 117.994C420.236 117.994 414.246 116.491 409.085 113.484C403.924 110.454 399.9 106.157 397.011 100.594C394.147 95.0066 392.714 88.3778 392.714 80.7074C392.714 74.8125 393.567 69.5568 395.271 64.9403C397 60.3002 399.414 56.3703 402.516 53.1506C405.617 49.9309 409.227 47.4806 413.347 45.7997C417.466 44.1188 421.929 43.2784 426.734 43.2784C430.854 43.2784 434.689 43.8821 438.24 45.0895C441.791 46.2732 444.94 47.9541 447.686 50.1321C450.456 52.3101 452.717 54.9025 454.469 57.9091C456.221 60.892 457.345 64.1828 457.842 67.7812H442.217ZM504.762 93.7756V62.4545H519.89V117H505.365V107.092H504.797C503.566 110.288 501.518 112.857 498.654 114.798C495.813 116.74 492.345 117.71 488.249 117.71C484.603 117.71 481.395 116.882 478.625 115.224C475.855 113.567 473.689 111.212 472.127 108.158C470.588 105.104 469.807 101.446 469.783 97.1847V62.4545H484.911V94.4858C484.935 97.7055 485.799 100.25 487.503 102.121C489.208 103.991 491.492 104.926 494.357 104.926C496.18 104.926 497.884 104.512 499.471 103.683C501.057 102.831 502.335 101.576 503.306 99.919C504.3 98.2618 504.785 96.214 504.762 93.7756ZM547.544 118.03C544.064 118.03 540.963 117.426 538.24 116.219C535.518 114.988 533.363 113.177 531.777 110.786C530.214 108.371 529.433 105.364 529.433 101.766C529.433 98.7353 529.99 96.1903 531.102 94.1307C532.215 92.071 533.73 90.4138 535.648 89.1591C537.565 87.9044 539.743 86.9574 542.182 86.3182C544.644 85.679 547.224 85.2292 549.923 84.9688C553.096 84.6373 555.652 84.3295 557.594 84.0455C559.535 83.7377 560.944 83.2879 561.82 82.696C562.696 82.1042 563.134 81.2282 563.134 80.0682V79.8551C563.134 77.6061 562.423 75.866 561.003 74.6349C559.606 73.4039 557.617 72.7884 555.037 72.7884C552.314 72.7884 550.148 73.392 548.538 74.5994C546.929 75.7831 545.863 77.2746 545.342 79.0739L531.351 77.9375C532.061 74.6231 533.458 71.7585 535.541 69.3438C537.625 66.9053 540.312 65.035 543.602 63.733C546.917 62.4072 550.752 61.7443 555.108 61.7443C558.138 61.7443 561.038 62.0994 563.808 62.8097C566.602 63.5199 569.076 64.6207 571.23 66.1122C573.408 67.6037 575.125 69.5213 576.379 71.8651C577.634 74.1851 578.261 76.9669 578.261 80.2102V117H563.915V109.436H563.489C562.613 111.141 561.441 112.644 559.973 113.946C558.505 115.224 556.741 116.231 554.682 116.964C552.622 117.675 550.243 118.03 547.544 118.03ZM551.876 107.589C554.102 107.589 556.067 107.152 557.771 106.276C559.476 105.376 560.813 104.169 561.784 102.653C562.755 101.138 563.24 99.4219 563.24 97.5043V91.7159C562.767 92.0237 562.116 92.3078 561.287 92.5682C560.482 92.8049 559.571 93.0298 558.553 93.2429C557.535 93.4323 556.517 93.6098 555.499 93.7756C554.481 93.9176 553.557 94.0478 552.729 94.1662C550.953 94.4266 549.402 94.8409 548.077 95.4091C546.751 95.9773 545.721 96.7467 544.987 97.7173C544.253 98.6643 543.886 99.848 543.886 101.268C543.886 103.328 544.632 104.902 546.124 105.991C547.639 107.057 549.556 107.589 551.876 107.589ZM589.998 117V62.4545H604.664V71.9716H605.232C606.227 68.5862 607.896 66.0294 610.239 64.3011C612.583 62.5492 615.282 61.6733 618.336 61.6733C619.094 61.6733 619.91 61.7206 620.786 61.8153C621.662 61.91 622.432 62.0402 623.094 62.206V75.6293C622.384 75.4162 621.402 75.2268 620.147 75.0611C618.892 74.8954 617.744 74.8125 616.702 74.8125C614.477 74.8125 612.488 75.2978 610.737 76.2685C609.008 77.2154 607.635 78.5412 606.617 80.2457C605.623 81.9503 605.126 83.9152 605.126 86.1406V117H589.998ZM648.476 117.888C644.333 117.888 640.581 116.822 637.219 114.692C633.881 112.537 631.23 109.377 629.265 105.21C627.323 101.02 626.353 95.8826 626.353 89.7983C626.353 83.5483 627.359 78.3518 629.371 74.2088C631.383 70.0421 634.059 66.929 637.397 64.8693C640.758 62.786 644.44 61.7443 648.441 61.7443C651.495 61.7443 654.04 62.2652 656.076 63.3068C658.135 64.3248 659.792 65.6032 661.047 67.142C662.326 68.6572 663.296 70.1487 663.959 71.6165H664.421V44.2727H679.513V117H664.598V108.264H663.959C663.249 109.779 662.243 111.283 660.941 112.774C659.662 114.242 657.993 115.461 655.934 116.432C653.898 117.402 651.412 117.888 648.476 117.888ZM653.27 105.849C655.709 105.849 657.768 105.187 659.449 103.861C661.154 102.511 662.456 100.629 663.355 98.2145C664.279 95.7997 664.74 92.9706 664.74 89.7273C664.74 86.4839 664.291 83.6667 663.391 81.2756C662.491 78.8845 661.189 77.0379 659.485 75.7358C657.78 74.4337 655.709 73.7827 653.27 73.7827C650.784 73.7827 648.689 74.4574 646.985 75.8068C645.28 77.1562 643.99 79.0265 643.114 81.4176C642.238 83.8087 641.8 86.5786 641.8 89.7273C641.8 92.8996 642.238 95.705 643.114 98.1435C644.014 100.558 645.304 102.452 646.985 103.825C648.689 105.175 650.784 105.849 653.27 105.849Z" fill="#D2D4DB"/>
<defs>
<filter id="filter0_d_5054_4625" x="0" y="0" width="170" height="170" filterUnits="userSpaceOnUse" color-interpolation-filters="sRGB">
<feFlood flood-opacity="0" result="BackgroundImageFix"/>
<feColorMatrix in="SourceAlpha" type="matrix" values="0 0 0 0 0 0 0 0 0 0 0 0 0 0 0 0 0 0 127 0" result="hardAlpha"/>
<feOffset dy="4"/>
<feGaussianBlur stdDeviation="2"/>
<feComposite in2="hardAlpha" operator="out"/>
<feColorMatrix type="matrix" values="0 0 0 0 0 0 0 0 0 0 0 0 0 0 0 0 0 0 0.25 0"/>
<feBlend mode="normal" in2="BackgroundImageFix" result="effect1_dropShadow_5054_4625"/>
<feBlend mode="normal" in="SourceGraphic" in2="effect1_dropShadow_5054_4625" result="shape"/>
</filter>
<linearGradient id="paint0_linear_5054_4625" x1="-71.9375" y1="-41.3438" x2="228.262" y2="234.294" gradientUnits="userSpaceOnUse">
<stop offset="0.0885417" stop-color="#61FF47"/>
<stop offset="0.635417" stop-color="#89B8FF"/>
<stop offset="0.899308" stop-color="#FF70F1"/>
</linearGradient>
<clipPath id="clip0_5054_4625">
<rect width="92.5337" height="110.272" fill="white" transform="translate(39.2509 26.4648)"/>
</clipPath>
</defs>
</svg>
